<svg width="2048px" height="2048px" viewBox="0 0 2048 2048" xmlns="http://www.w3.org/2000/svg" xmlns:xlink="http://www.w3.org/1999/xlink"><path transform="translate(0,2048) scale(1,-1)" d= "M960 2048Q1011 2048 1057 2041.5Q1103 2035 1146.5 2021.5Q1190 2008 1232 1987.5Q1274 1967 1317 1940Q1389 1894 1461 1865Q1533 1836 1607 1820Q1681 1804 1759 1798Q1837 1792 1920 1792L1920 1280Q1920 1134 1883.5 1003Q1847 872 1782.5 754.5Q1718 637 1630 533Q1542 429 1439 337.5Q1336 246 1221.5 167Q1107 88 991 21L960 3L929 21Q813 88 698.5 167Q584 246 481 337.5Q378 429 290 533Q202 637 137.5 754.5Q73 872 36.5 1003Q0 1134 0 1280L0 1792Q83 1792 161 1798Q239 1804 313 1820Q387 1836 459 1865Q531 1894 603 1940Q688 1995 773 2021.5Q858 2048 960 2048ZM1792 1280L1792 1666Q1643 1674 1506.5 1714Q1370 1754 1244 1835Q1176 1879 1108.5 1899.5Q1041 1920 960 1920Q879 1920 811.5 1899.5Q744 1879 676 1835Q550 1754 413.5 1714Q277 1674 128 1666L128 1280Q128 1153 161.5 1036Q195 919 253 813Q311 707 391 612.5Q471 518 563 435Q655 352 756.5 281Q858 210 960 151Q1062 210 1163.5 281Q1265 352 1357 435Q1449 518 1529 612.5Q1609 707 1667 813Q1725 919 1758.5 1036Q1792 1153 1792 1280Z"></path></svg>