<svg width="2048px" height="2048px" viewBox="0 0 2048 2048" xmlns="http://www.w3.org/2000/svg" xmlns:xlink="http://www.w3.org/1999/xlink"><path transform="translate(0,2048) scale(1,-1)" d= "M1664 1152L1664 768L1920 768L1920 128L1280 128L1280 768L1536 768L1536 1024L384 1024L384 768L640 768L640 128L0 128L0 768L256 768L256 1152L896 1152L896 1408L640 1408L640 2048L1280 2048L1280 1408L1024 1408L1024 1152L1664 1152ZM1152 1920L768 1920L768 1536L1152 1536L1152 1920ZM128 256L512 256L512 640L128 640L128 256ZM1408 256L1792 256L1792 640L1408 640L1408 256Z"></path></svg>