<svg width="2048px" height="2048px" viewBox="0 0 2048 2048" xmlns="http://www.w3.org/2000/svg" xmlns:xlink="http://www.w3.org/1999/xlink"><path transform="translate(0,2048) scale(1,-1)" d= "M1280 1536Q1280 1470 1263.5 1407Q1247 1344 1216 1287.5Q1185 1231 1140 1183.5Q1095 1136 1039 1102Q1158 1055 1257 973L1175 875Q1087 947 984.5 985.5Q882 1024 768 1024Q680 1024 598 1001Q516 978 445 936.5Q374 895 315.5 836.5Q257 778 215.5 707Q174 636 151 554Q128 472 128 384L0 384Q0 501 35.5 613Q71 725 136.5 820.5Q202 916 293.5 989.5Q385 1063 496 1102Q440 1138 395.5 1185Q351 1232 320 1288Q289 1344 272.5 1406.5Q256 1469 256 1536Q256 1642 296 1735.5Q336 1829 405.5 1898.5Q475 1968 568.5 2008Q662 2048 768 2048Q874 2048 967.5 2008Q1061 1968 1130.5 1898.5Q1200 1829 1240 1735.5Q1280 1642 1280 1536ZM768 1152Q847 1152 917 1182Q987 1212 1039.5 1264.5Q1092 1317 1122 1386.5Q1152 1456 1152 1536Q1152 1615 1122 1685Q1092 1755 1039.5 1807.5Q987 1860 917 1890Q847 1920 768 1920Q688 1920 618.5 1890Q549 1860 496.5 1807.5Q444 1755 414 1685Q384 1615 384 1536Q384 1456 414 1386.5Q444 1317 496.5 1264.5Q549 1212 618.5 1182Q688 1152 768 1152ZM1984 704Q1984 652 1967.5 603Q1951 554 1920 512L1920 0L1664 128L1408 0L1408 512Q1377 554 1360.5 603Q1344 652 1344 704Q1344 770 1369 828Q1394 886 1437.5 929.5Q1481 973 1539.5 998.5Q1598 1024 1664 1024Q1730 1024 1788 998.5Q1846 973 1889.5 929.5Q1933 886 1958.5 828Q1984 770 1984 704ZM1664 896Q1624 896 1589 881Q1554 866 1528 840Q1502 814 1487 779Q1472 744 1472 704Q1472 664 1487 629Q1502 594 1528 568Q1554 542 1589 527Q1624 512 1664 512Q1704 512 1739 527Q1774 542 1800 568Q1826 594 1841 629Q1856 664 1856 704Q1856 744 1841 779Q1826 814 1800 840Q1774 866 1739 881Q1704 896 1664 896ZM1664 271Q1696 254 1728 238.5Q1760 223 1792 207L1792 411Q1732 384 1664 384Q1596 384 1536 411L1536 207Q1568 223 1600 238.5Q1632 254 1664 271Z"></path></svg>